<svg width="177" height="24" viewBox="0 0 177 24" fill="none" xmlns="http://www.w3.org/2000/svg">
<path d="M17.424 1.392C17.784 1.392 18.024 1.584 18.024 1.896V1.992C18.024 2.736 17.16 2.856 16.56 4.272L11.16 17.088C10.776 18.024 10.2 18.432 9.24 18.432C8.352 18.432 7.848 18.024 7.464 17.184L1.464 4.272C0.864002 2.976 2.01166e-06 2.736 2.01166e-06 1.992V1.896C2.01166e-06 1.584 0.240002 1.392 0.600002 1.392H7.8C8.16 1.392 8.4 1.584 8.4 1.896V1.992C8.4 2.736 6.84 3.12 7.296 4.272L10.68 12.864L13.944 4.272C14.4 3.096 12.84 2.736 12.84 1.992V1.896C12.84 1.584 13.08 1.392 13.44 1.392H17.424ZM21.7346 5.736C19.9106 5.736 18.6866 4.56 18.6866 3.072C18.6866 1.584 19.9106 0.431998 21.7346 0.431998C23.5586 0.431998 24.7826 1.584 24.7826 3.072C24.7826 4.56 23.5586 5.736 21.7346 5.736ZM18.8546 18.432C18.4946 18.432 18.2546 18.24 18.2546 17.928V17.832C18.2546 17.088 19.2386 16.728 19.2386 15.552V11.688C19.2386 10.512 18.2546 10.152 18.2546 9.504V9.408C18.2546 9.12 18.4946 8.976 18.8546 8.808L22.9586 6.792C23.6786 6.432 24.1346 6.864 24.1346 7.344V15.552C24.1346 16.728 25.2386 17.088 25.2386 17.832V17.928C25.2386 18.24 24.9986 18.432 24.6386 18.432H18.8546ZM38.5376 6.912C38.8976 6.912 39.1376 7.104 39.1376 7.416V7.512C39.1376 8.256 37.8656 8.64 37.4336 9.792L34.5296 17.76C34.3616 18.24 34.0976 18.432 33.6176 18.432H31.0736C30.5936 18.432 30.3776 18.24 30.1616 17.76L26.7536 9.792C26.2976 8.736 25.4096 8.256 25.4096 7.512V7.416C25.4096 7.104 25.6496 6.912 26.0096 6.912H32.1536C32.4896 6.912 32.7296 7.128 32.7296 7.44V7.536C32.7296 8.256 31.8656 8.496 32.3696 9.864L34.0736 14.472L35.4176 10.56C36.1376 8.472 34.5536 8.256 34.5536 7.536V7.44C34.5536 7.128 34.7936 6.912 35.1536 6.912H38.5376ZM50.9678 15.624C51.2078 17.4 52.1438 17.016 52.1438 17.712C52.1438 18.408 50.5598 18.576 49.1438 18.576C47.6078 18.576 46.8878 18.288 46.6718 17.52C46.1678 18.144 45.2558 18.672 43.7198 18.672C41.1758 18.672 39.1598 17.52 39.1598 15.024C39.1598 12.576 41.2238 11.328 43.4558 11.328C44.3918 11.328 45.1598 11.52 45.7598 11.856C45.4718 9.072 45.4478 7.92 44.3678 7.92C42.9518 7.92 43.6958 11.256 41.3198 11.256C40.1918 11.256 39.4238 10.56 39.4238 9.528C39.4238 7.392 41.9678 6.672 44.3678 6.672C47.6558 6.672 50.0318 8.544 50.4158 11.472L50.9678 15.624ZM45.2558 17.328C45.8558 17.328 46.1678 16.44 46.1198 15.768L46.0238 14.64C45.8318 13.152 45.3038 12.72 44.8478 12.72C44.3678 12.72 44.0318 13.272 44.0318 14.088C44.0318 15.816 44.4638 17.328 45.2558 17.328ZM65.4866 18.672C60.5186 18.672 57.2306 14.376 57.2306 9.672C57.2306 4.848 60.3506 1.176 65.2226 1.176C68.9666 1.176 72.3026 3.072 72.3026 5.784C72.3026 7.032 71.4626 7.92 70.0466 7.92C66.7346 7.92 66.7586 3.072 64.2626 3.072C63.1106 3.072 61.9826 4.296 61.9826 6.648C61.9826 11.304 64.5266 14.256 67.1426 14.256C69.2066 14.256 70.1426 12.888 70.8386 12.096C71.3186 11.544 72.2546 11.736 72.2546 12.552C72.2546 15.624 70.1906 18.672 65.4866 18.672ZM73.7642 18.432C73.4042 18.432 73.1642 18.24 73.1642 17.928V17.832C73.1642 17.088 74.1482 16.728 74.1482 15.552V5.256C74.1482 4.08 73.1642 3.72 73.1642 3.072V2.976C73.1642 2.688 73.4042 2.544 73.7642 2.376L77.8682 0.359999C78.5882 -9.53674e-07 79.0442 0.431998 79.0442 0.911999V15.552C79.0442 16.728 80.1482 17.088 80.1482 17.832V17.928C80.1482 18.24 79.9082 18.432 79.5482 18.432H73.7642ZM92.8271 15.624C93.0671 17.4 94.0031 17.016 94.0031 17.712C94.0031 18.408 92.4191 18.576 91.0031 18.576C89.4671 18.576 88.7471 18.288 88.5311 17.52C88.0271 18.144 87.1151 18.672 85.5791 18.672C83.0351 18.672 81.0191 17.52 81.0191 15.024C81.0191 12.576 83.0831 11.328 85.3151 11.328C86.2511 11.328 87.0191 11.52 87.6191 11.856C87.3311 9.072 87.3071 7.92 86.2271 7.92C84.8111 7.92 85.5551 11.256 83.1791 11.256C82.0511 11.256 81.2831 10.56 81.2831 9.528C81.2831 7.392 83.8271 6.672 86.2271 6.672C89.5151 6.672 91.8911 8.544 92.2751 11.472L92.8271 15.624ZM87.1151 17.328C87.7151 17.328 88.0271 16.44 87.9791 15.768L87.8831 14.64C87.6911 13.152 87.1631 12.72 86.7071 12.72C86.2271 12.72 85.8911 13.272 85.8911 14.088C85.8911 15.816 86.3231 17.328 87.1151 17.328ZM106.513 6.912C106.873 6.912 107.113 7.104 107.113 7.416V7.512C107.113 8.256 106.249 8.688 105.745 9.792L101.233 19.488C100.609 20.832 99.2171 23.616 96.6491 23.616C94.1531 23.616 92.5931 22.176 92.5931 20.664C92.5931 19.536 93.3131 18.768 94.5131 18.768C97.1051 18.768 96.2651 22.224 97.2731 22.224C97.9691 22.224 98.7851 20.688 99.3611 19.296L94.4171 9.792C93.8171 8.64 93.0251 8.256 93.0251 7.512V7.416C93.0251 7.104 93.2651 6.912 93.6251 6.912H99.3371C99.6731 6.912 99.9131 7.128 99.9131 7.44V7.536C99.9131 8.256 99.0011 8.424 99.6011 9.864L101.737 15.024L103.657 10.32C104.377 8.568 102.481 8.256 102.481 7.536V7.44C102.481 7.128 102.721 6.912 103.081 6.912H106.513ZM124.961 6.912C125.321 6.912 125.561 7.104 125.561 7.416V7.512C125.561 8.256 124.409 8.616 124.001 9.792L121.145 17.76C120.977 18.24 120.713 18.432 120.233 18.432H119.129C118.649 18.432 118.361 18.24 118.217 17.76L116.441 11.928L114.665 17.76C114.521 18.24 114.233 18.432 113.753 18.432H112.985C112.505 18.432 112.265 18.24 112.073 17.76L108.737 9.792C108.281 8.688 107.393 8.256 107.393 7.512V7.416C107.393 7.104 107.633 6.912 107.993 6.912H113.273C113.609 6.912 113.849 7.128 113.849 7.44V7.536C113.849 8.256 112.625 8.472 113.081 9.864L114.377 13.872L116.153 7.584C116.249 7.248 116.441 7.032 116.801 7.032L118.409 7.008C118.769 7.008 118.985 7.176 119.081 7.512L120.833 13.776L122.009 10.344C122.633 8.52 120.953 8.256 120.953 7.536V7.44C120.953 7.128 121.193 6.912 121.553 6.912H124.961ZM131.963 18.672C128.459 18.672 125.267 16.272 125.267 12.672C125.267 9.072 128.459 6.672 131.963 6.672C135.491 6.672 138.635 9.072 138.635 12.672C138.635 16.272 135.491 18.672 131.963 18.672ZM132.539 17.376C133.499 17.376 133.643 16.368 133.643 14.856C133.643 13.584 132.923 7.968 131.147 7.968C130.211 7.968 130.067 8.88 130.067 10.536C130.067 12.072 130.787 17.376 132.539 17.376ZM148.181 6.672C149.597 6.672 150.437 7.752 150.437 9.192C150.437 10.536 149.957 11.736 148.373 11.736C145.925 11.736 147.005 9.336 145.877 9.336C145.373 9.336 145.301 10.08 145.301 10.824V15.552C145.301 16.728 146.645 17.088 146.645 17.832V17.928C146.645 18.24 146.405 18.432 146.045 18.432H140.309C139.949 18.432 139.709 18.24 139.709 17.928V17.832C139.709 17.088 140.693 16.728 140.693 15.552V11.448C140.693 10.272 139.469 10.152 139.469 9.408V9.312C139.469 9 139.685 8.76 140.069 8.568L143.885 6.768C144.557 6.456 144.797 6.84 144.797 7.344V9.096C145.301 7.536 146.429 6.672 148.181 6.672ZM164.205 16.248C164.565 16.776 165.621 17.088 165.621 17.832V17.928C165.621 18.24 165.381 18.432 165.021 18.432H159.501C159.141 18.432 158.901 18.216 158.901 17.904V17.808C158.901 17.088 159.789 16.848 159.405 16.248L157.701 13.464L156.669 14.424V15.552C156.669 16.728 157.773 17.088 157.773 17.832V17.928C157.773 18.24 157.533 18.432 157.173 18.432H151.389C151.029 18.432 150.789 18.24 150.789 17.928V17.832C150.789 17.088 151.773 16.728 151.773 15.552V5.256C151.773 4.08 150.549 3.72 150.549 3.072V2.976C150.549 2.688 150.789 2.544 151.149 2.376L155.493 0.359999C156.213 0.0239987 156.669 0.431998 156.669 0.911999V12.12L159.477 9.744C160.245 9.096 158.853 8.256 158.853 7.536V7.44C158.853 7.128 159.093 6.912 159.453 6.912H163.533C163.893 6.912 164.133 7.104 164.133 7.416V7.512C164.133 8.256 162.741 8.784 161.733 9.72L160.533 10.848L164.205 16.248ZM170.746 18.648C167.77 18.648 165.37 17.64 165.37 15.816C165.37 14.616 166.21 14.112 167.266 14.112C169.93 14.112 169.09 17.496 170.746 17.496C171.25 17.496 171.682 17.232 171.682 16.392C171.682 13.272 165.562 15 165.562 10.416C165.562 8.208 167.674 6.672 170.77 6.672C173.842 6.672 175.93 7.92 175.93 9.576C175.93 10.488 175.114 11.208 174.106 11.208C171.538 11.208 172.33 7.872 171.034 7.872C170.458 7.872 170.266 8.472 170.266 9.048C170.266 12.36 176.074 10.776 176.074 15.048C176.074 17.088 174.178 18.648 170.746 18.648Z" fill="black"/>
</svg>
