<svg width="189" height="26" viewBox="0 0 189 26" fill="none" xmlns="http://www.w3.org/2000/svg">
<path d="M18.7037 1.49424C19.0902 1.49424 19.3478 1.70034 19.3478 2.03525V2.1383C19.3478 2.93695 18.4203 3.06576 17.7763 4.58576L11.9797 18.3431C11.5674 19.3478 10.9491 19.7858 9.91863 19.7858C8.96541 19.7858 8.4244 19.3478 8.01219 18.4461L1.57152 4.58576C0.927448 3.19458 -9.46314e-06 2.93695 -9.46314e-06 2.1383V2.03525C-9.46314e-06 1.70034 0.257618 1.49424 0.644058 1.49424H8.37287C8.75931 1.49424 9.01694 1.70034 9.01694 2.03525V2.1383C9.01694 2.93695 7.34236 3.34915 7.83186 4.58576L11.4644 13.8088L14.9681 4.58576C15.4576 3.32339 13.783 2.93695 13.783 2.1383V2.03525C13.783 1.70034 14.0407 1.49424 14.4271 1.49424H18.7037ZM23.3309 6.15729C21.373 6.15729 20.0591 4.89492 20.0591 3.29763C20.0591 1.70034 21.373 0.463728 23.3309 0.463728C25.2889 0.463728 26.6028 1.70034 26.6028 3.29763C26.6028 4.89492 25.2889 6.15729 23.3309 6.15729ZM20.2394 19.7858C19.853 19.7858 19.5954 19.5797 19.5954 19.2447V19.1417C19.5954 18.3431 20.6516 17.9566 20.6516 16.6942V12.5464C20.6516 11.2841 19.5954 10.8976 19.5954 10.202V10.099C19.5954 9.78983 19.853 9.63525 20.2394 9.45492L24.6448 7.29085C25.4177 6.90441 25.9072 7.36814 25.9072 7.88339V16.6942C25.9072 17.9566 27.0923 18.3431 27.0923 19.1417V19.2447C27.0923 19.5797 26.8347 19.7858 26.4482 19.7858H20.2394ZM41.3681 7.41966C41.7545 7.41966 42.0121 7.62576 42.0121 7.96068V8.06373C42.0121 8.86237 40.6467 9.27458 40.183 10.5112L37.0657 19.0644C36.8854 19.5797 36.602 19.7858 36.0867 19.7858H33.3559C32.8406 19.7858 32.6087 19.5797 32.3769 19.0644L28.7186 10.5112C28.2291 9.37763 27.2759 8.86237 27.2759 8.06373V7.96068C27.2759 7.62576 27.5335 7.41966 27.9199 7.41966H34.5152C34.8759 7.41966 35.1335 7.65153 35.1335 7.98644V8.08949C35.1335 8.86237 34.206 9.12 34.747 10.5885L36.5762 15.5349L38.0189 11.3356C38.7918 9.09424 37.0915 8.86237 37.0915 8.08949V7.98644C37.0915 7.65153 37.3491 7.41966 37.7355 7.41966H41.3681ZM54.7111 16.7715C54.9688 18.678 55.9735 18.2658 55.9735 19.0129C55.9735 19.76 54.2732 19.9403 52.7532 19.9403C51.1044 19.9403 50.3315 19.6312 50.0996 18.8068C49.5586 19.4766 48.5796 20.0434 46.9308 20.0434C44.1999 20.0434 42.0359 18.8068 42.0359 16.1275C42.0359 13.4997 44.2515 12.16 46.6474 12.16C47.6522 12.16 48.4766 12.3661 49.1206 12.7268C48.8115 9.73831 48.7857 8.50169 47.6264 8.50169C46.1064 8.50169 46.905 12.0827 44.3545 12.0827C43.1437 12.0827 42.3193 11.3356 42.3193 10.2278C42.3193 7.93492 45.0501 7.16203 47.6264 7.16203C51.1559 7.16203 53.7064 9.17153 54.1186 12.3146L54.7111 16.7715ZM48.5796 18.6007C49.2237 18.6007 49.5586 17.6475 49.5071 16.9261L49.404 15.7153C49.1979 14.118 48.6311 13.6542 48.1416 13.6542C47.6264 13.6542 47.2657 14.2468 47.2657 15.1227C47.2657 16.9776 47.7294 18.6007 48.5796 18.6007ZM70.2964 20.0434C64.9635 20.0434 61.434 15.4319 61.434 10.3824C61.434 5.20407 64.7831 1.26237 70.013 1.26237C74.032 1.26237 77.613 3.29763 77.613 6.20881C77.613 7.54847 76.7113 8.50169 75.1913 8.50169C71.636 8.50169 71.6618 3.29763 68.9825 3.29763C67.7459 3.29763 66.535 4.61153 66.535 7.13627C66.535 12.1342 69.2659 15.3031 72.074 15.3031C74.2896 15.3031 75.2943 13.8346 76.0414 12.9844C76.5567 12.3919 77.5615 12.598 77.5615 13.4739C77.5615 16.7715 75.3459 20.0434 70.2964 20.0434ZM79.1819 19.7858C78.7954 19.7858 78.5378 19.5797 78.5378 19.2447V19.1417C78.5378 18.3431 79.5941 17.9566 79.5941 16.6942V5.64203C79.5941 4.37966 78.5378 3.99322 78.5378 3.29763V3.19458C78.5378 2.88542 78.7954 2.73085 79.1819 2.55051L83.5873 0.386441C84.3602 8.96131e-07 84.8497 0.463728 84.8497 0.978984V16.6942C84.8497 17.9566 86.0348 18.3431 86.0348 19.1417V19.2447C86.0348 19.5797 85.7771 19.7858 85.3907 19.7858H79.1819ZM99.6449 16.7715C99.9026 18.678 100.907 18.2658 100.907 19.0129C100.907 19.76 99.207 19.9403 97.687 19.9403C96.0381 19.9403 95.2653 19.6312 95.0334 18.8068C94.4924 19.4766 93.5134 20.0434 91.8646 20.0434C89.1337 20.0434 86.9697 18.8068 86.9697 16.1275C86.9697 13.4997 89.1853 12.16 91.5812 12.16C92.5859 12.16 93.4104 12.3661 94.0544 12.7268C93.7453 9.73831 93.7195 8.50169 92.5602 8.50169C91.0402 8.50169 91.8388 12.0827 89.2883 12.0827C88.0775 12.0827 87.2531 11.3356 87.2531 10.2278C87.2531 7.93492 89.9839 7.16203 92.5602 7.16203C96.0897 7.16203 98.6402 9.17153 99.0524 12.3146L99.6449 16.7715ZM93.5134 18.6007C94.1575 18.6007 94.4924 17.6475 94.4409 16.9261L94.3378 15.7153C94.1317 14.118 93.5649 13.6542 93.0754 13.6542C92.5602 13.6542 92.1995 14.2468 92.1995 15.1227C92.1995 16.9776 92.6632 18.6007 93.5134 18.6007ZM114.336 7.41966C114.723 7.41966 114.98 7.62576 114.98 7.96068V8.06373C114.98 8.86237 114.053 9.3261 113.512 10.5112L108.668 20.9193C107.998 22.362 106.504 25.3505 103.748 25.3505C101.068 25.3505 99.3937 23.8047 99.3937 22.1817C99.3937 20.9708 100.167 20.1464 101.455 20.1464C104.237 20.1464 103.335 23.8563 104.417 23.8563C105.165 23.8563 106.041 22.2075 106.659 20.7132L101.352 10.5112C100.708 9.27458 99.8575 8.86237 99.8575 8.06373V7.96068C99.8575 7.62576 100.115 7.41966 100.502 7.41966H106.633C106.994 7.41966 107.251 7.65153 107.251 7.98644V8.08949C107.251 8.86237 106.272 9.04271 106.916 10.5885L109.209 16.1275L111.27 11.078C112.043 9.19729 110.008 8.86237 110.008 8.08949V7.98644C110.008 7.65153 110.266 7.41966 110.652 7.41966H114.336ZM134.139 7.41966C134.526 7.41966 134.783 7.62576 134.783 7.96068V8.06373C134.783 8.86237 133.547 9.24881 133.109 10.5112L130.043 19.0644C129.863 19.5797 129.579 19.7858 129.064 19.7858H127.879C127.364 19.7858 127.055 19.5797 126.9 19.0644L124.994 12.8041L123.087 19.0644C122.933 19.5797 122.623 19.7858 122.108 19.7858H121.284C120.769 19.7858 120.511 19.5797 120.305 19.0644L116.724 10.5112C116.234 9.3261 115.281 8.86237 115.281 8.06373V7.96068C115.281 7.62576 115.539 7.41966 115.925 7.41966H121.593C121.954 7.41966 122.211 7.65153 122.211 7.98644V8.08949C122.211 8.86237 120.897 9.09424 121.387 10.5885L122.778 14.8908L124.684 8.14102C124.788 7.78034 124.994 7.54847 125.38 7.54847L127.106 7.52271C127.493 7.52271 127.724 7.70305 127.828 8.06373L129.708 14.7878L130.971 11.1037C131.64 9.14576 129.837 8.86237 129.837 8.08949V7.98644C129.837 7.65153 130.095 7.41966 130.481 7.41966H134.139ZM141.655 20.0434C137.894 20.0434 134.467 17.4671 134.467 13.6027C134.467 9.73831 137.894 7.16203 141.655 7.16203C145.442 7.16203 148.817 9.73831 148.817 13.6027C148.817 17.4671 145.442 20.0434 141.655 20.0434ZM142.273 18.6522C143.304 18.6522 143.458 17.5702 143.458 15.9471C143.458 14.5817 142.686 8.55322 140.779 8.55322C139.774 8.55322 139.62 9.5322 139.62 11.3098C139.62 12.9586 140.393 18.6522 142.273 18.6522ZM159.065 7.16203C160.585 7.16203 161.487 8.32136 161.487 9.86712C161.487 11.3098 160.971 12.598 159.271 12.598C156.643 12.598 157.802 10.0217 156.592 10.0217C156.051 10.0217 155.973 10.8203 155.973 11.619V16.6942C155.973 17.9566 157.416 18.3431 157.416 19.1417V19.2447C157.416 19.5797 157.158 19.7858 156.772 19.7858H150.615C150.228 19.7858 149.971 19.5797 149.971 19.2447V19.1417C149.971 18.3431 151.027 17.9566 151.027 16.6942V12.2888C151.027 11.0264 149.713 10.8976 149.713 10.099V9.99593C149.713 9.66102 149.945 9.40339 150.357 9.19729L154.453 7.26508C155.175 6.93017 155.432 7.34237 155.432 7.88339V9.76407C155.973 8.08949 157.184 7.16203 159.065 7.16203ZM176.265 17.4414C176.652 18.0081 177.785 18.3431 177.785 19.1417V19.2447C177.785 19.5797 177.528 19.7858 177.141 19.7858H171.216C170.83 19.7858 170.572 19.5539 170.572 19.219V19.1159C170.572 18.3431 171.525 18.0854 171.113 17.4414L169.284 14.4529L168.176 15.4834V16.6942C168.176 17.9566 169.361 18.3431 169.361 19.1417V19.2447C169.361 19.5797 169.103 19.7858 168.717 19.7858H162.508C162.122 19.7858 161.864 19.5797 161.864 19.2447V19.1417C161.864 18.3431 162.92 17.9566 162.92 16.6942V5.64203C162.92 4.37966 161.606 3.99322 161.606 3.29763V3.19458C161.606 2.88542 161.864 2.73085 162.251 2.55051L166.914 0.386441C167.686 0.0257633 168.176 0.463728 168.176 0.978984V13.0102L171.19 10.4597C172.015 9.76407 170.52 8.86237 170.52 8.08949V7.98644C170.52 7.65153 170.778 7.41966 171.164 7.41966H175.544C175.931 7.41966 176.188 7.62576 176.188 7.96068V8.06373C176.188 8.86237 174.694 9.42915 173.612 10.4339L172.324 11.6447L176.265 17.4414ZM183.287 20.0176C180.092 20.0176 177.516 18.9356 177.516 16.9776C177.516 15.6895 178.418 15.1485 179.551 15.1485C182.411 15.1485 181.509 18.781 183.287 18.781C183.828 18.781 184.292 18.4976 184.292 17.5959C184.292 14.2468 177.722 16.1017 177.722 11.181C177.722 8.81085 179.989 7.16203 183.313 7.16203C186.61 7.16203 188.852 8.50169 188.852 10.2793C188.852 11.2583 187.976 12.0312 186.894 12.0312C184.137 12.0312 184.987 8.45017 183.596 8.45017C182.978 8.45017 182.772 9.09424 182.772 9.71254C182.772 13.2678 189.006 11.5675 189.006 16.1532C189.006 18.3431 186.971 20.0176 183.287 20.0176Z" fill="#2B190B"/>
</svg>
