<svg width="20" height="20" viewBox="0 0 20 20" fill="none" xmlns="http://www.w3.org/2000/svg">
<path d="M16.7 3H3.63333C2.735 3 2.00817 3.735 2.00817 4.63333L2 14.4333C2 15.3317 2.735 16.0667 3.63333 16.0667H16.7C17.5983 16.0667 18.3333 15.3317 18.3333 14.4333V4.63333C18.3333 3.735 17.5983 3 16.7 3ZM16.3733 6.47083L10.5995 10.0805C10.3382 10.2438 9.99516 10.2438 9.73382 10.0805L3.96 6.47083C3.87811 6.42486 3.8064 6.36275 3.74921 6.28827C3.69202 6.21378 3.65053 6.12846 3.62727 6.03748C3.604 5.9465 3.59944 5.85174 3.61386 5.75895C3.62828 5.66615 3.66137 5.57724 3.71114 5.49761C3.76092 5.41797 3.82633 5.34927 3.90342 5.29564C3.98052 5.24202 4.06769 5.2046 4.15967 5.18564C4.25164 5.16668 4.34651 5.16659 4.43853 5.18535C4.53054 5.20412 4.61779 5.24137 4.695 5.29483L10.1667 8.71666L15.6383 5.29483C15.7155 5.24137 15.8028 5.20412 15.8948 5.18535C15.9868 5.16659 16.0817 5.16668 16.1736 5.18564C16.2656 5.2046 16.3528 5.24202 16.4299 5.29564C16.507 5.34927 16.5724 5.41797 16.6222 5.49761C16.6719 5.57724 16.705 5.66615 16.7195 5.75895C16.7339 5.85174 16.7293 5.9465 16.706 6.03748C16.6828 6.12846 16.6413 6.21378 16.5841 6.28827C16.5269 6.36275 16.4552 6.42486 16.3733 6.47083Z" fill="#2B190B"/>
</svg>
