<svg width="20" height="20" viewBox="0 0 20 20" fill="none" xmlns="http://www.w3.org/2000/svg">
<path d="M6.73666 2H13.5967C16.21 2 18.3333 4.12333 18.3333 6.73666V13.5967C18.3333 14.8529 17.8343 16.0577 16.946 16.946C16.0577 17.8343 14.8529 18.3333 13.5967 18.3333H6.73666C4.12333 18.3333 2 16.21 2 13.5967V6.73666C2 5.48042 2.49904 4.27563 3.38734 3.38734C4.27563 2.49904 5.48042 2 6.73666 2ZM6.57333 3.63333C5.79359 3.63333 5.04579 3.94308 4.49444 4.49444C3.94308 5.04579 3.63333 5.79359 3.63333 6.57333V13.76C3.63333 15.3851 4.94816 16.7 6.57333 16.7H13.76C14.5397 16.7 15.2875 16.3902 15.8389 15.8389C16.3902 15.2875 16.7 14.5397 16.7 13.76V6.57333C16.7 4.94816 15.3851 3.63333 13.76 3.63333H6.57333ZM14.4542 4.85833C14.7249 4.85833 14.9845 4.96588 15.176 5.15732C15.3674 5.34877 15.475 5.60842 15.475 5.87916C15.475 6.1499 15.3674 6.40956 15.176 6.601C14.9845 6.79244 14.7249 6.89999 14.4542 6.89999C14.1834 6.89999 13.9238 6.79244 13.7323 6.601C13.5409 6.40956 13.4333 6.1499 13.4333 5.87916C13.4333 5.60842 13.5409 5.34877 13.7323 5.15732C13.9238 4.96588 14.1834 4.85833 14.4542 4.85833ZM10.1667 6.08333C11.2496 6.08333 12.2882 6.51353 13.054 7.27931C13.8198 8.04508 14.25 9.08369 14.25 10.1667C14.25 11.2496 13.8198 12.2882 13.054 13.054C12.2882 13.8198 11.2496 14.25 10.1667 14.25C9.08369 14.25 8.04508 13.8198 7.27931 13.054C6.51353 12.2882 6.08333 11.2496 6.08333 10.1667C6.08333 9.08369 6.51353 8.04508 7.27931 7.27931C8.04508 6.51353 9.08369 6.08333 10.1667 6.08333ZM10.1667 7.71666C9.51688 7.71666 8.89371 7.97478 8.43425 8.43425C7.97478 8.89371 7.71666 9.51688 7.71666 10.1667C7.71666 10.8164 7.97478 11.4396 8.43425 11.8991C8.89371 12.3585 9.51688 12.6167 10.1667 12.6167C10.8164 12.6167 11.4396 12.3585 11.8991 11.8991C12.3585 11.4396 12.6167 10.8164 12.6167 10.1667C12.6167 9.51688 12.3585 8.89371 11.8991 8.43425C11.4396 7.97478 10.8164 7.71666 10.1667 7.71666Z" fill="#2B190B"/>
</svg>
