<svg width="16" height="16" viewBox="0 0 16 16" fill="none" xmlns="http://www.w3.org/2000/svg">
<path d="M5.24864 10.5043L10.5043 5.24864M3.27718 7.21918L1.96349 8.53287C1.6184 8.87797 1.34465 9.28765 1.15789 9.73854C0.971126 10.1894 0.875 10.6727 0.875 11.1607C0.875 11.6488 0.971126 12.132 1.15789 12.5829C1.34465 13.0338 1.6184 13.4435 1.96349 13.7886C2.30858 14.1337 2.71827 14.4074 3.16916 14.5942C3.62004 14.7809 4.1033 14.8771 4.59134 14.8771C5.07937 14.8771 5.56263 14.7809 6.01352 14.5942C6.4644 14.4074 6.87409 14.1337 7.21918 13.7886L8.53101 12.4749M7.21825 3.27718L8.53194 1.96349C8.87704 1.6184 9.28672 1.34465 9.73761 1.15789C10.1885 0.971126 10.6718 0.875 11.1598 0.875C11.6478 0.875 12.1311 0.971126 12.582 1.15789C13.0329 1.34465 13.4425 1.6184 13.7876 1.96349C14.1327 2.30858 14.4065 2.71827 14.5932 3.16916C14.78 3.62004 14.8761 4.1033 14.8761 4.59134C14.8761 5.07937 14.78 5.56263 14.5932 6.01352C14.4065 6.4644 14.1327 6.87409 13.7876 7.21918L12.4739 8.53287" stroke="black" stroke-width="1.75" stroke-linecap="round" stroke-linejoin="round"/>
</svg>
