<svg width="20" height="20" viewBox="0 0 20 20" fill="none" xmlns="http://www.w3.org/2000/svg">
<path d="M16.025 12.7166L13.9084 12.475C13.6595 12.4457 13.4072 12.4733 13.1705 12.5556C12.9338 12.6378 12.7188 12.7727 12.5417 12.95L11.0084 14.4833C8.64286 13.2799 6.72009 11.3571 5.5167 8.99164L7.05837 7.44997C7.4167 7.09164 7.5917 6.59164 7.53337 6.0833L7.2917 3.9833C7.24463 3.57671 7.04959 3.20166 6.74375 2.92963C6.43792 2.65761 6.04268 2.50763 5.63337 2.5083H4.1917C3.25003 2.5083 2.4667 3.29164 2.52503 4.2333C2.9667 11.35 8.65837 17.0333 15.7667 17.475C16.7084 17.5333 17.4917 16.75 17.4917 15.8083V14.3666C17.5 13.525 16.8667 12.8166 16.025 12.7166Z" fill="#2B190B"/>
</svg>
