<svg width="24" height="19" viewBox="0 0 24 19" fill="none" xmlns="http://www.w3.org/2000/svg">
<path d="M7.67 0.169171C8.775 -0.480828 10.14 0.884169 9.165 1.85917C6.76 4.19917 5.85 5.62917 5.525 7.57917C5.395 8.22917 5.525 8.68417 6.175 8.68417C8.255 8.68417 9.88 10.5692 9.88 13.2992C9.88 16.2892 7.995 18.4342 5.07 18.4342C2.34 18.4342 0 16.2892 0 12.5842C0 7.90417 2.535 3.54917 7.67 0.169171ZM21.385 0.169171C22.49 -0.480828 23.855 0.884169 22.88 1.85917C20.475 4.19917 19.565 5.62917 19.24 7.57917C19.11 8.22917 19.24 8.68417 19.89 8.68417C21.97 8.68417 23.595 10.5692 23.595 13.2992C23.595 16.2892 21.71 18.4342 18.785 18.4342C16.055 18.4342 13.715 16.2892 13.715 12.5842C13.715 7.90417 16.25 3.54917 21.385 0.169171Z" fill="#2B190B"/>
</svg>
