<svg width="21" height="20" viewBox="0 0 21 20" fill="none" xmlns="http://www.w3.org/2000/svg">
<path d="M9.07351 0.819836C9.49724 -0.273434 11.0441 -0.273434 11.4679 0.819836L13.2572 5.43659C13.4394 5.90661 13.8797 6.22655 14.3831 6.25455L19.3268 6.52967C20.4975 6.59482 20.9755 8.06601 20.0667 8.80684L16.2288 11.9353C15.8381 12.2538 15.6699 12.7714 15.7988 13.2588L17.0648 18.0455C17.3646 19.1791 16.1132 20.0883 15.1278 19.4529L10.9665 16.7696C10.5428 16.4964 9.99854 16.4964 9.57489 16.7696L5.41362 19.4529C4.42821 20.0883 3.17674 19.1791 3.47654 18.0455L4.74259 13.2588C4.87148 12.7714 4.70328 12.2538 4.31256 11.9353L0.474706 8.80684C-0.434116 8.06601 0.0439033 6.59482 1.2146 6.52967L6.15833 6.25455C6.66164 6.22655 7.102 5.90661 7.28417 5.43659L9.07351 0.819836Z" fill="#F9B25A"/>
</svg>
